<svg xmlns="http://www.w3.org/2000/svg" width="751" height="300" viewBox="0 0 751 300" fill="none"><path fill-rule="evenodd" clip-rule="evenodd" d="M129.513 0C77.198-.007 30.03 31.5 10.005 79.831-10.021 128.162 1.04 183.797 38.03 220.792c36.99 36.995 92.623 48.064 140.957 28.045 48.333-20.018 79.848-67.181 79.848-119.496C258.754 57.948 200.905.091 129.513 0zm0 232.802c-41.857.007-79.596-25.202-95.618-63.871-16.021-38.67-7.169-83.183 22.428-112.78 29.598-29.597 74.111-38.45 112.78-22.428 38.669 16.021 63.879 53.76 63.871 95.618-.07 57.111-46.35 103.391-103.461 103.461zm195.516-112.276l9.125 34.675h14.601l16.334-51.703h-14.601l-9.508 35.004h-.201l-8.797-35.004h-13.797l-8.596 35.095h-.201l-9.508-35.095h-15.002l16.425 51.703h14.71l8.815-34.675h.201zm68.056 25.368a12.651 12.651 0 01-9.125-3.103c-2.136-2.08-3.304-5.384-3.504-9.983h37.303a35.85 35.85 0 00-1.003-11.498 28.093 28.093 0 00-4.545-9.8 22.904 22.904 0 00-8.048-6.844 24.626 24.626 0 00-11.498-2.555c-3.69-.052-7.35.662-10.749 2.099a24.985 24.985 0 00-13.761 14.509 30.35 30.35 0 00-1.825 10.804 31.777 31.777 0 001.825 10.95 24.99 24.99 0 005.256 8.596 22.68 22.68 0 008.304 5.475 29.185 29.185 0 0010.95 1.953 27.138 27.138 0 0015.002-3.997c4.076-2.664 7.118-7.099 9.125-13.304h-12.501a8.996 8.996 0 01-3.796 4.562 12.78 12.78 0 01-7.41 2.136zm-.821-33.107a10.039 10.039 0 017.756 2.811 16.43 16.43 0 013.486 8.249h-23.032a16.68 16.68 0 01.657-3.394 10.513 10.513 0 011.825-3.65 10.962 10.962 0 013.65-2.866 12.639 12.639 0 015.658-1.15zm46.885-2.098v-7.191h-13.505v51.703h14.198V128.1c0-5.269.87-9.053 2.61-11.352a9.82 9.82 0 018.395-3.45c3.45 0 5.767 1.041 7.1 3.14a18.244 18.244 0 012.007 9.563v29.2h14.199v-31.737a41.605 41.605 0 00-.858-8.742 16.76 16.76 0 00-2.938-6.698 13.87 13.87 0 00-5.767-4.307 23.935 23.935 0 00-9.344-1.551 20.47 20.47 0 00-8.797 2.044 16.418 16.418 0 00-7.008 6.479h-.292zm57.178 31.664a8.537 8.537 0 002.464 2.701 10.27 10.27 0 003.449 1.551c1.319.331 2.674.497 4.034.493a14.902 14.902 0 003.157-.347 11.348 11.348 0 003.011-1.095 6.955 6.955 0 002.245-2.007 5.25 5.25 0 00.894-3.157c0-2.136-1.405-3.651-4.252-4.8a85.103 85.103 0 00-11.844-3.194 79.677 79.677 0 01-6.06-1.643 21.385 21.385 0 01-5.237-2.5 12.206 12.206 0 01-3.651-3.906 11.1 11.1 0 01-1.405-5.748 15.625 15.625 0 011.953-8.213 14.32 14.32 0 015.147-5.037 22.739 22.739 0 017.208-2.61 44.96 44.96 0 018.195-.748 41.383 41.383 0 018.158.803 21.586 21.586 0 017.044 2.701 16.176 16.176 0 015.147 5.055 16.99 16.99 0 012.464 7.939h-13.615a6.242 6.242 0 00-3.102-5.475 14.165 14.165 0 00-6.607-1.442 22.019 22.019 0 00-2.592.146 8.616 8.616 0 00-2.555.639 5.353 5.353 0 00-1.953 1.46 3.859 3.859 0 00-.803 2.555 3.928 3.928 0 001.406 3.103 10.946 10.946 0 003.65 1.934 43.506 43.506 0 005.146 1.351c1.935.401 3.906.839 5.914 1.314a55.739 55.739 0 016.04 1.697 19.713 19.713 0 015.257 2.646 12.902 12.902 0 013.65 4.107 12.03 12.03 0 011.387 6.041 15.677 15.677 0 01-7.392 14.107 21.908 21.908 0 01-7.446 2.884 44.073 44.073 0 01-8.651.839 42.68 42.68 0 01-8.796-.894 23.116 23.116 0 01-7.647-3.011 17.028 17.028 0 01-5.475-5.476 17.615 17.615 0 01-2.355-8.65h13.506a7.75 7.75 0 00.912 3.887zm41.666-46.867V83.788h14.199v11.698h-14.199zm14.199 8.012v51.703h-14.199v-51.703h14.199zm24.072 0v7.191h.31a16.281 16.281 0 016.99-6.479 20.49 20.49 0 018.815-2.044 23.932 23.932 0 019.344 1.551 13.917 13.917 0 015.749 4.307 16.535 16.535 0 012.957 6.698c.587 2.876.868 5.807.839 8.742v31.737H597.07v-29.2a18.248 18.248 0 00-1.935-9.563c-1.351-2.099-3.65-3.14-7.118-3.14a9.858 9.858 0 00-8.395 3.45c-1.74 2.299-2.604 6.083-2.591 11.352v27.101h-14.217v-51.703h13.45zm60.172 18.615V83.788h-14.108v71.377h14.199v-17.794l5.475-5.311 14.217 23.105h17.192l-21.7-32.705 19.437-18.944h-16.809l-17.903 18.597zM368.319 224.991a2.973 2.973 0 01-.566 0l-.219-.11a2.033 2.033 0 00-.292 0c-5.621.365-11.279 1.205-16.754 2.026l-2.08.31a3.067 3.067 0 00-2.3 1.515c-4.161 9.947-7.61 17.886-10.95 25.551-4.946 11.315-9.6 22.028-15.732 36.993-.437.966-.875 1.878-1.312 2.789l-.002.003v.001c-.657 1.332-1.259 2.573-1.825 3.978l-.164.383c-.274.676-.639 1.57-1.606 1.57h-.091a2.96 2.96 0 01-.621-.109h-.201a1.48 1.48 0 01-.876-1.315 5.354 5.354 0 01.676-2.317l4.526-8.45c5.566-13.542 9.727-23.288 14.144-33.617a2261.096 2261.096 0 0010.859-25.551l.127-.292c-5.292.493-31.153 6.278-35.241 7.3a2.829 2.829 0 00-2.026 1.424c-2.792 5-5.512 10.037-8.03 15.184a35.615 35.615 0 00-3.65 7.848c-.233 1.12-.139 2.216-.046 3.297.147 1.719.291 3.399-.885 5.08-1.916 2.737-8.395 5.475-8.705 0a4.19 4.19 0 01.2-1.424c1.424-4.654 10.823-22.229 14.345-28.598l.146-.256c.126-.182.242-.371.347-.566l-.274.092-.292.091a219.376 219.376 0 00-23.306 7.793l-.292.128a15.193 15.193 0 01-4.434 1.295 2.86 2.86 0 01-.968 0c-8.295-2.279 6.49-6.373 9.926-7.325.306-.084.522-.144.623-.176 2.88-.879 5.717-1.88 8.552-2.88 4.046-1.427 8.09-2.854 12.254-3.927a2.519 2.519 0 001.825-1.405 317.844 317.844 0 0130.058-45.06c.146-.219 15.841-20.404 24.565-22.229a6.899 6.899 0 011.259-.219c3.942-.219 6.005 3.431 6.37 7.081v1.022c.6 11.29-7.422 30.587-13.311 44.753l-.067.161a533.896 533.896 0 00-3.102 7.556 5.552 5.552 0 001.186-.201h.146c5.092-.639 10.348-1.278 15.622-1.551l2.19-.11c.84-.036 1.442.292 1.588 1.04a1.35 1.35 0 01-.292 1.022 1.46 1.46 0 01-1.022.402zm-21.225-6.187c4.818-11.388 11.406-26.974 13.469-36.647h.036a41.425 41.425 0 001.15-10.092c-.11-2.081-.657-4.526-2.628-4.526h-.128a7.627 7.627 0 00-3.139 1.241c-5.165 3.212-12.72 11.333-18.05 17.812a237.66 237.66 0 00-25.915 38.691l-.292.529a53.049 53.049 0 00-2.5 5.11l.314-.057h.001c10.115-1.849 21.951-4.013 34.36-5.819.53.007.987-.372 1.077-.895l2.245-5.347zm379.736 9.162c-6.899.693-13.798 1.338-20.696 1.934-13.378 1.132-26.792 2.154-40.151 2.756a7.314 7.314 0 01-3.322-.693c-2.454-1.174-2.749-3.757-3.038-6.285l-.01-.085a22.628 22.628 0 00-.31-2.318c-.493-2.19-1.825-2.482-2.518-2.427a3.641 3.641 0 00-1.971.913c-1.132.967-3.65 3.65-5.877 6.132l-2.482 2.701c-.412.366-.844.707-1.296 1.022l-.401.292v-.566a2.145 2.145 0 01.091-.694 53.108 53.108 0 011.515-6.405c.247-.851.597-1.835.972-2.892l.014-.038c.12-.337.242-.681.364-1.031a37.704 37.704 0 002.519-8.979v-.456a2.664 2.664 0 00-2.939-2.646c-.43.001-.857.081-1.259.237-5.639 2.153-12.866 9.417-16.042 13.104.511-1.26.967-2.391 1.424-3.651a4.75 4.75 0 00.182-1.423 2.117 2.117 0 00-.693-1.497c-2.701-2.372-5.676 3.322-6.388 5.165a3.994 3.994 0 01-1.643 2.172c-3.869 2.993-14.198 10.95-22.758 11.37-.967.11-1.442-.347-1.496-1.369a23.162 23.162 0 012.354-7.866c.358-.777.668-1.576.931-2.39a2.154 2.154 0 00-1.552-2.756 2.018 2.018 0 00-.419.109 2.193 2.193 0 00-.803.457 5.915 5.915 0 00-4.691-1.826 7.429 7.429 0 00-4.654 1.99 23.821 23.821 0 00-2.956 3.449l-.876.675-.034.026c-3.913 3.013-14.189 10.926-22.724 11.363-1.022 0-1.442-.365-1.497-1.387a23.149 23.149 0 012.354-7.866c.361-.777.672-1.575.931-2.391.099-.275.13-.569.091-.858a2.168 2.168 0 00-.657-1.533 1.332 1.332 0 00-.985-.347c-.145.013-.287.05-.42.11-.296.087-.57.236-.803.438a5.984 5.984 0 00-4.69-1.825 7.298 7.298 0 00-4.654 1.989 21.571 21.571 0 00-3.322 4.033l-1.058 1.114c-3.395 3.65-9.746 10.475-15.331 10.767a6.095 6.095 0 01-2.701-.492c-.766-.347-1.715-1.698-1.952-6.059v-6.571c-.292-2.628-1.917-2.774-2.555-2.792a3.653 3.653 0 00-1.917.73 144.274 144.274 0 00-10.95 9.892l-2.555 2.409c.438-.949.967-2.026 1.533-3.139a62.345 62.345 0 003.65-7.921c.089-.203.054-.443.025-.643-.013-.087-.025-.167-.025-.233a2.533 2.533 0 000-2.117l-.053-.065c-.353-.44-.595-.74-1.151-.774-1.022 0-2.063.857-3.085 2.372a83.044 83.044 0 00-3.248 5.183c-5.968 4.837-17.539 11.644-24.693 13.761a9.81 9.81 0 01-2.482.402 4.97 4.97 0 01-3.34-.822 3.176 3.176 0 01-1.223-2.464 6.203 6.203 0 01.822-3.303c.4.044.804.044 1.204 0a5.309 5.309 0 002.519-.803l.912-.584c1.971-1.204 3.997-2.464 5.804-3.814a9.813 9.813 0 002.482-2.92l.164-.238a4.23 4.23 0 00.694-2.536 2.956 2.956 0 00-3.267-2.847 4.893 4.893 0 00-2.3.62 21.899 21.899 0 00-8.194 6.406c-8.906 1.697-15.696 5.256-22.886 9.034l-.164.091a58.214 58.214 0 002.171-6.588.8.8 0 010-.183c.011-.139.011-.28 0-.42a2.899 2.899 0 00-.748-1.825 2.37 2.37 0 00-1.825-.711c-.444.053-.88.163-1.296.328 0-.138-.065-.283-.132-.432a2.295 2.295 0 01-.105-.261 8.048 8.048 0 00-1.059-2.409 5.933 5.933 0 00-5.475-2.373c-5.164.274-11.607 4.891-14.801 9.125l-1.168 1.241c-3.157 3.431-9.745 10.567-15.385 10.859a6.072 6.072 0 01-2.701-.474c-.766-.365-1.825-1.698-1.953-6.059v-6.643c-.2-1.826-1.149-2.866-2.5-2.866h-.128a3.655 3.655 0 00-1.825.712c-1.733 1.182-5.996 5.211-9.613 8.629l-1.337 1.263-1.825 1.697a.26.26 0 010-.11 80.908 80.908 0 004.69-10.749c.093-.364.136-.738.128-1.113a1.353 1.353 0 00-.474-1.004l-.201-.146a2.263 2.263 0 00-1.259-.42h-.165a4.497 4.497 0 00-2.336 1.314c-1.277 1.113-2.829 2.701-4.617 4.563l-.079.081c-5.304 5.468-12.545 12.933-18.737 13.296-1.223 0-1.935-.803-2.008-2.263a5.466 5.466 0 01.438-2.518c.767-1.935 1.825-4.052 2.719-5.767a23.919 23.919 0 001.607-3.413c.101-.28.132-.581.091-.876a2.226 2.226 0 00-.402-1.223 1.515 1.515 0 00-1.314-.639h-.438c-.365.146-.675.566-1.35 1.552-.089.148-.203.309-.311.462l-.033.047-.04.056a3.287 3.287 0 00-2.609-1.168 6.567 6.567 0 00-4.234 2.72 25.212 25.212 0 00-3.651 7.993v.383c.028.6.323 1.156.803 1.515.466.351 1.044.52 1.625.475a3.146 3.146 0 001.551-.456 20.24 20.24 0 003.34-3.121 13.289 13.289 0 00-.42 3.65 4.851 4.851 0 001.205 3.23 4.654 4.654 0 003.777 1.223h.438c7.191-1.059 14.71-8.815 20.769-15.075l2.154-2.208a3.699 3.699 0 00-.183.347c-.584 1.24-1.237 2.462-1.926 3.751l-.063.118a43.07 43.07 0 00-3.832 8.559 8.483 8.483 0 01-.986 1.533 5.468 5.468 0 00-1.405 2.938c.051.564.399 1.058.912 1.296.465.253.986.385 1.515.383a6.31 6.31 0 003.796-2.482l.803-.803.009-.008c4.505-4.56 9.01-9.12 13.606-13.698.244-.251.513-.478.803-.675V237.985c.164 2.865.73 6.297 3.851 7.629a7.573 7.573 0 003.65.657c4.106-.219 9.016-3.249 14.6-8.998a2.257 2.257 0 000 .493c.013.926.41 1.805 1.095 2.427a3.646 3.646 0 002.574.803 4.895 4.895 0 001.533-.328 28.545 28.545 0 004.453-1.825l2.683-1.387c3.522-1.825 9.782-5.019 11.552-5.785a23.836 23.836 0 01-3.76 8.322c-18.086 12.264-32.759 26.791-39.274 38.855a29.213 29.213 0 00-3.432 13.031 6.721 6.721 0 001.497 4.234 5.294 5.294 0 004.106 1.606h.457a10.495 10.495 0 001.624-.238c15.239-2.883 27.01-29.456 34.803-47.049l.11-.247c1.304-2.944 2.44-5.507 3.541-7.637.529-1.369.985-1.825 1.642-2.154a113.563 113.563 0 0122.101-9.91 22.25 22.25 0 00-1.825 3.778 9.119 9.119 0 00-.547 3.76 7.063 7.063 0 001.697 4.435 5.95 5.95 0 004.928 1.825h.492c6.68-.657 18.379-7.501 25.46-12.885a62.96 62.96 0 00-2.428 5.712 8.647 8.647 0 00-.657 3.157 2.995 2.995 0 001.625 2.629c.46.246.974.377 1.496.383 1.481 0 2.723-1.345 3.825-2.538l.117-.127.657-.693c3.012-3 6.074-6.065 9.107-9.103l4.49-4.494a8.13 8.13 0 01.73-.62h.091v6.114c.164 2.938.73 6.497 3.778 7.774a7.406 7.406 0 003.65.657c4.106-.201 8.961-3.175 14.473-8.833a.94.94 0 010 .237 3.19 3.19 0 00-.128.895c.036.599.312 1.158.766 1.551a2.69 2.69 0 001.917.639c.267.005.533-.038.784-.128a52.516 52.516 0 008.834-5.603 13.805 13.805 0 00-.639 4.526 4.824 4.824 0 001.204 3.176 4.583 4.583 0 003.65 1.204h.511c5.475-.529 14.601-5.566 20.715-10.403-.256.694-.475 1.424-.73 2.282-.09.283-.133.579-.128.876a2.463 2.463 0 002.664 2.208c.275 0 .547-.049.803-.146a50.856 50.856 0 008.852-5.585 13.248 13.248 0 00-.657 4.527 4.728 4.728 0 001.204 3.157 4.64 4.64 0 003.65 1.223h.475c6.351-.603 16.936-7.009 22.503-11.881-.544 1.939-1.07 3.902-1.592 5.846-.249.929-.497 1.853-.744 2.768l-.895 3.34a9.01 9.01 0 00-.346 2.628 2.445 2.445 0 00.73 1.825c.363.313.835.47 1.314.438.792 0 1.192-.736 1.726-1.716.205-.374.428-.785.701-1.204.661-1.026 1.318-2.06 1.978-3.098 4.916-7.734 9.948-15.65 17.221-21.394.586-.47 1.195-.908 1.825-1.314.511-.347.566 1.715.566 1.825a15.966 15.966 0 01-1.095 3.431l-.134.416v.002c-1.091 3.393-2.218 6.899-3.041 10.422a11.198 11.198 0 00-.183 2.957c.013.465.061.929.146 1.387a2.865 2.865 0 003.011 2.573 3.633 3.633 0 001.643-.438c2.062-1.076 4.672-4.27 6.972-7.099 1.204-1.478 2.354-2.884 3.212-3.65.547 3.65 1.295 8.432 5.329 10.038 1.309.468 2.699.673 4.088.602 4.8-.256 81.251-5.877 84.28-8.633 2.074-1.886-4.83-.848-12.578.317h-.001c-3.571.537-7.321 1.101-10.453 1.417l.11.11zm-129.487-6.333c.012.009.011.027 0 .051v-.051zm-.015.078a.408.408 0 00.015-.027v.04l-.015-.013zm0 0c-.505.784-8.881 6.596-9.785 7.222l.146-.748v.529a24.152 24.152 0 015.347-5.968c1.146-.927 2.889-2.217 4.292-1.035zm-37.325 2.112a46.56 46.56 0 01-8.669 6.661l.128-.182a20.285 20.285 0 016.241-6.589c.31-.202.67-.316 1.041-.328.433-.005.852.159 1.168.456l.091-.018zm-81.926 8.304a28.575 28.575 0 018.742-7.538c2.792 1.442-5.275 6.333-8.742 7.538zm-114.266 4.745l.041-.047c.884-1.01 1.877-2.145 3.153-3.439h-.018c-.438-.584-.621-.584-.749-.584-.214.065-.422.15-.62.256l-.347.164a18.7 18.7 0 00-3.851 6.241 62.258 62.258 0 002.391-2.591zm86.014-7.592l-.021.011a7.133 7.133 0 00-1.402-2.128c-1.041-1.223-3.888-.639-6.516.602a46.798 46.798 0 00-9.125 6.789c-.675.949-.109 2.026.639 2.026a127.777 127.777 0 0016.404-7.289l.003.007.018-.018zm-41.483 62.434a3.888 3.888 0 00.821 2.464h.037c.626.641 1.523.94 2.409.803.325-.011.648-.048.967-.109 14.418-2.811 23.872-25.095 31.445-42.962.276-.641.549-1.275.817-1.902h.001v-.002a413.98 413.98 0 012.577-5.925c-10.311 7.008-27.905 21.353-35.862 36.209-1.095 1.989-3.413 7.61-3.212 11.424z" fill="#1d1d1b"/></svg>